# xmcd CD database file
#
# Track frame offsets:
#	150
#	10133
#	22441
#	36024
#	47432
#	58015
#	72723
#	84506
#	96514
#	107997
#	120005
#	129538
#	140496
#	155354
#	169237
#
# Disc length: 2548 seconds
#
# Revision: 0
# Processed by: cddbd v1.5.2PL0 Copyright (c) Steve Scherf et al.
# Submitted via: CDex 1.51
#
DISCID=cf09f20f
DTITLE=Urbain Lambert - Houville
DYEAR=2013
DGENRE=Country
TTITLE0=38 tonnes
TTITLE1=J.J Cale
TTITLE2=Qu'est ce qu'on aime?
TTITLE3=Le matin
TTITLE4=Docteur Who
TTITLE5=Baton rouge
TTITLE6=Dormir
TTITLE7=Regard ailleurs
TTITLE8=J'rale tout le l'temps
TTITLE9=Ma peine
TTITLE10=Je traine mon blues
TTITLE11=L'arbre du paradis
TTITLE12=Sorry for the sorrow
TTITLE13=Retour aux sources
TTITLE14=Mon radeau
EXTD=YEAR: 2013
EXTT0=
EXTT1=
EXTT2=
EXTT3=
EXTT4=
EXTT5=
EXTT6=
EXTT7=
EXTT8=
EXTT9=
EXTT10=
EXTT11=
EXTT12=
EXTT13=
EXTT14=
PLAYORDER=
